<svg width="320" height="320" viewBox="0 0 320 320" fill="none" xmlns="http://www.w3.org/2000/svg">
<rect width="320" height="320" rx="70" fill="#FFF1E7"/>
<mask id="mask0_367_1436" style="mask-type:luminance" maskUnits="userSpaceOnUse" x="148" y="67" width="109" height="186">
<path d="M148.492 67H256V252.491H148.492V67Z" fill="white"/>
</mask>
<g mask="url(#mask0_367_1436)">
<path d="M229.322 67C231.695 78.8644 225.763 91.1016 217.221 99.6439C208.678 108.203 197.746 113.881 187.323 119.983C176.865 126.068 166.441 133.034 159.899 143.203C154.187 152.034 151.865 162.627 150.662 173.084C149.17 185.762 149.374 199.067 153.408 210.999C156.34 203.796 160.153 196.915 164.509 190.474C173.052 177.813 183.577 166.644 194.034 155.525C206.272 142.542 218.492 129.576 230.729 116.593C218.051 140.322 198.441 159.457 181.848 180.627C165.272 201.813 151.136 227.118 152.679 253.965C153.916 240.22 165.068 229.304 177.17 222.677C189.272 216.033 202.831 212.321 214.763 205.389C237.305 192.254 252.475 167.22 253.644 141.152C254.831 114.779 242.814 89.6779 229.322 67Z" fill="#D98973"/>
</g>
<mask id="mask1_367_1436" style="mask-type:luminance" maskUnits="userSpaceOnUse" x="64" y="76" width="81" height="149">
<path d="M64 76.5275H144.152V224.052H64V76.5275Z" fill="white"/>
</mask>
<g mask="url(#mask1_367_1436)">
<mask id="mask2_367_1436" style="mask-type:luminance" maskUnits="userSpaceOnUse" x="64" y="78" width="80" height="143">
<path d="M83.3557 78.3929C81.5591 87.376 86.0506 96.6471 92.5251 103.122C98.9997 109.596 107.288 113.901 115.186 118.528C123.101 123.155 130.983 128.41 135.966 136.105C140.288 142.816 142.05 150.833 142.966 158.749C144.067 168.342 143.915 178.426 140.864 187.477C138.644 182.037 135.745 176.816 132.44 171.935C125.966 162.359 118 153.884 110.084 145.477C100.813 135.647 91.559 125.816 82.2879 115.986C91.8811 133.969 106.745 148.444 119.305 164.494C131.881 180.545 142.593 199.698 141.423 220.053C140.474 209.63 132.033 201.376 122.881 196.342C113.711 191.308 103.44 188.511 94.3895 183.24C77.3048 173.24 65.8134 154.291 64.932 134.545C64.0337 114.562 73.1523 95.5793 83.3557 78.3929Z" fill="white"/>
</mask>
<g mask="url(#mask2_367_1436)">
<path d="M144.067 78.3929V220.053H64.0338V78.3929H144.067Z" fill="url(#paint0_linear_367_1436)"/>
</g>
</g>
<defs>
<linearGradient id="paint0_linear_367_1436" x1="104.226" y1="78.3856" x2="104.226" y2="220.046" gradientUnits="userSpaceOnUse">
<stop stop-color="#F4C9BC"/>
<stop offset="0.0625" stop-color="#F3C8BB"/>
<stop offset="0.125" stop-color="#F3C8BB"/>
<stop offset="0.1875" stop-color="#F2C7BA"/>
<stop offset="0.25" stop-color="#F1C7BA"/>
<stop offset="0.3125" stop-color="#F1C6B9"/>
<stop offset="0.375" stop-color="#F0C5B8"/>
<stop offset="0.4375" stop-color="#EFC5B8"/>
<stop offset="0.5" stop-color="#EEC4B7"/>
<stop offset="0.5625" stop-color="#EEC4B7"/>
<stop offset="0.625" stop-color="#EDC3B6"/>
<stop offset="0.6875" stop-color="#ECC2B5"/>
<stop offset="0.75" stop-color="#EBC2B5"/>
<stop offset="0.8125" stop-color="#EBC1B4"/>
<stop offset="0.875" stop-color="#EAC1B4"/>
<stop offset="0.9375" stop-color="#E9C0B3"/>
<stop offset="1" stop-color="#E9BFB2"/>
</linearGradient>
</defs>
</svg>
